<svg xmlns="http://www.w3.org/2000/svg" viewBox="0 0 128 128" width="128" height="128" role="img" aria-label="Pelota de fútbol">
  <circle cx="64" cy="64" r="60" fill="#ffffff"/>
  <circle cx="64" cy="64" r="60" fill="none" stroke="#000000" stroke-width="5"/>

  <polygon points="64,30 87,47 78,76 50,76 41,47" fill="#000000"/>
  <polygon points="22,49 41,47 50,76 36,94 16,83" fill="#000000"/>
  <polygon points="106,49 87,47 78,76 92,94 112,83" fill="#000000"/>
  <polygon points="47,111 36,94 50,76 78,76 92,94 81,111" fill="#000000"/>

  <path d="M41 47 30 22" stroke="#000000" stroke-width="5" stroke-linecap="round"/>
  <path d="M87 47 98 22" stroke="#000000" stroke-width="5" stroke-linecap="round"/>
  <path d="M36 94 20 108" stroke="#000000" stroke-width="5" stroke-linecap="round"/>
  <path d="M92 94 108 108" stroke="#000000" stroke-width="5" stroke-linecap="round"/>
  <path d="M64 30 64 8" stroke="#000000" stroke-width="5" stroke-linecap="round"/>
  <path d="M22 49 8 42" stroke="#000000" stroke-width="5" stroke-linecap="round"/>
  <path d="M106 49 120 42" stroke="#000000" stroke-width="5" stroke-linecap="round"/>
  <path d="M16 83 7 68" stroke="#000000" stroke-width="5" stroke-linecap="round"/>
  <path d="M112 83 121 68" stroke="#000000" stroke-width="5" stroke-linecap="round"/>
</svg>
